<?xml version="1.0" encoding="UTF-8" standalone="no"?>
<!-- Created with Inkscape (http://www.inkscape.org/) -->

<svg
   width="79.3162mm"
   height="67.567802mm"
   viewBox="0 0 79.3162 67.567802"
   version="1.1"
   id="svg1"
   xml:space="preserve"
   xmlns="http://www.w3.org/2000/svg"
   xmlns:svg="http://www.w3.org/2000/svg"><defs
     id="defs1" /><g
     id="layer1"
     transform="translate(252.32325,101.08257)"><path
       id="path9"
       d="m -242.01393,-93.375014 38.65833,-7.553456 c 4.66497,-0.91149 8.97412,2.317463 8.93827,7.124534 l -0.24816,33.276149 c -0.0497,6.659071 1.20459,27.013016 -3.88204,27.013016 h -26.5685 l -12.77164,-0.0831 c -5.89544,-0.03836 -14.43558,-3.824116 -14.43558,-11.153662 v -33.406829 c 0,-7.329546 4.64138,-14.109191 10.30932,-15.216652 z"
       style="opacity:1;fill:#e1523d;fill-opacity:1;stroke-width:0.26;stroke-linecap:round" /><path
       id="rect9"
       style="opacity:1;fill:#ed8b16;stroke-width:0.26;stroke-linecap:round"
       d="m -236.36816,-90.540062 h 45.41867 c 7.54064,0 13.61126,6.070622 13.61126,13.61126 v 29.802775 c 0,7.540638 -6.07062,13.61126 -13.61126,13.61126 h -45.41867 c -7.54063,0 -13.61126,-6.070622 -13.61126,-13.61126 v -29.802775 c 0,-7.540638 6.07063,-13.61126 13.61126,-13.61126 z" /><path
       id="path10"
       style="opacity:1;fill:#e1523d;fill-opacity:1;stroke-width:0.249087;stroke-linecap:round"
       d="m -186.43776,-71.011937 c -4.79865,0 -8.662,4.007098 -8.662,8.984464 0,4.977366 3.86335,8.984465 8.662,8.984465 h 4.7687 5.07308 c 1.98818,0 3.58893,-1.660029 3.58893,-3.722254 v -5.262211 -5.261694 c 0,-2.062224 -1.60075,-3.72277 -3.58893,-3.72277 h -5.07308 z m -0.59686,5.038452 a 3.9457722,3.9457722 0 0 1 3.94601,3.946012 3.9457722,3.9457722 0 0 1 -3.94601,3.946013 3.9457722,3.9457722 0 0 1 -3.9455,-3.946013 3.9457722,3.9457722 0 0 1 3.9455,-3.946012 z" /><path
       d="m -213.65877,-80.654431 a 2,2 0 0 0 -1.99988,2.000395 v 2.457215 c -1.38029,0.179337 -2.6106,0.547654 -3.68453,1.11311 -0.89172,0.469524 -2.14862,1.489932 -2.73213,2.24224 -0.67809,0.874251 -1.12347,1.878889 -1.33635,3.014803 -0.16818,0.897407 -0.16996,2.385515 -0.009,3.284038 0.12294,0.687634 0.32907,1.309078 0.61753,1.863969 0.42931,0.825832 1.61268,1.921802 2.49287,2.406571 0.84642,0.466173 1.89357,0.891541 3.14141,1.276408 0.41884,0.129181 0.95529,0.274889 1.5105,0.419096 0.74881,0.194488 1.53202,0.38607 2.10788,0.530717 l 0.21705,0.05478 c 0.48513,0.121857 1.08944,0.266405 1.67483,0.419096 0.62469,0.162941 1.22798,0.335339 1.64124,0.49816 0.94517,0.372388 1.89353,1.204033 2.13166,1.649512 0.4375,0.818485 0.41694,2.381888 -0.002,3.20859 -0.0332,0.06565 -0.0692,0.130053 -0.10697,0.193786 -0.47547,0.80273 -1.87917,1.736917 -2.86287,2.027267 -0.2553,0.07536 -0.52236,0.137847 -0.8015,0.188619 -0.001,2.63e-4 -0.003,7.71e-4 -0.004,10e-4 -1.01997,0.184972 -2.73247,0.18436 -3.75946,0.02946 -0.0828,-0.01249 -0.15611,-0.03115 -0.23616,-0.04547 -0.39117,-0.07002 -0.75712,-0.156888 -1.0821,-0.270785 -0.95873,-0.336008 -2.08066,-1.51638 -2.4691,-2.357995 -0.11268,-0.244126 -0.21241,-0.501025 -0.29921,-0.770496 -0.28197,-0.875371 -1.19399,-1.617989 -2.23759,-1.617989 h -0.56275 c -1.0436,0 -1.8798,0.740296 -1.74667,1.642794 0.65394,4.433102 3.41512,6.891606 8.28373,7.375777 0.037,0.0037 0.0751,0.0074 0.11369,0.01085 v 2.408638 a 2,2 0 0 0 1.99988,1.999878 2,2 0 0 0 1.99988,-1.999878 v -2.4722 c 1.51133,-0.189489 2.85146,-0.572793 4.00441,-1.167888 0.89651,-0.462739 2.16858,-1.465715 2.77399,-2.205033 0.77656,-0.94834 1.27924,-2.044814 1.50843,-3.289722 0.1653,-0.897848 0.16923,-2.386489 -0.008,-3.282487 -0.11867,-0.600776 -0.30671,-1.152501 -0.56482,-1.654679 -0.42539,-0.827618 -1.55845,-1.963731 -2.40761,-2.488737 -0.67512,-0.417404 -1.47255,-0.788258 -2.39158,-1.112077 -0.76751,-0.270428 -1.95526,-0.572492 -2.91507,-0.808736 -0.24975,-0.06147 -0.48397,-0.118692 -0.69143,-0.169499 l -0.30903,-0.07545 c -0.8152,-0.199645 -2.04849,-0.486605 -2.9993,-0.774113 -0.22107,-0.06685 -0.42705,-0.133626 -0.60875,-0.199471 -0.0865,-0.03134 -0.17075,-0.06301 -0.25321,-0.09509 -0.94967,-0.369412 -2.00085,-1.143346 -2.30012,-1.609721 -0.50408,-0.785561 -0.5013,-2.356394 -0.0946,-3.182751 0.40779,-0.828483 1.78266,-1.815882 2.76366,-2.109432 0.15857,-0.04745 0.32229,-0.08951 0.49093,-0.126091 6.5e-4,-1.42e-4 0.001,-3.74e-4 0.002,-5.16e-4 1.01054,-0.218716 2.73524,-0.222714 3.74396,-0.001 0.0892,0.0196 0.17023,0.04598 0.2558,0.06873 1.40832,0.374368 2.33528,1.170103 2.76831,2.397786 0.30597,0.867482 1.12991,1.62419 2.17351,1.62419 h 0.56327 c 1.0436,0 1.89853,-0.741611 1.75235,-1.642277 -0.19274,-1.187465 -0.58693,-2.223526 -1.18288,-3.10782 -0.52751,-0.782753 -1.73697,-1.853018 -2.63136,-2.317171 -0.97961,-0.508377 -2.12924,-0.841504 -3.4432,-1.005107 v -2.447396 a 2,2 0 0 0 -1.99988,-2.000395 z"
       style="font-size:55.2731px;font-family:FreeSans;-inkscape-font-specification:FreeSans;text-align:center;letter-spacing:0.982634px;text-anchor:middle;white-space:pre;fill:#ffffff;fill-opacity:0.669907;stroke-width:3.3387;stroke-linecap:round"
       id="path31" /></g></svg>
